<svg xmlns:dc="http://purl.org/dc/elements/1.1/" xmlns:cc="http://web.resource.org/cc/" xmlns:rdf="http://www.w3.org/1999/02/22-rdf-syntax-ns#" xmlns:svg="http://www.w3.org/2000/svg" xmlns="http://www.w3.org/2000/svg" xmlns:xlink="http://www.w3.org/1999/xlink" xmlns:sodipodi="http://inkscape.sourceforge.net/DTD/sodipodi-0.dtd" xmlns:inkscape="http://www.inkscape.org/namespaces/inkscape" version="1.0" width="388.84pt" height="115.02pt" id="svg2" sodipodi:version=".32" inkscape:version=".43" sodipodi:docname="logo-python-generic.svg" sodipodi:docbase="/home/sdeibel"><title>- www.python.org/</title><sodipodi:namedview inkscape:window-height="543" inkscape:window-width="791" inkscape:pageshadow="2" inkscape:pageopacity="0" borderopacity="1" bordercolor="#666666" pagecolor="#ffffff" id="base" inkscape:zoom="1.4340089" inkscape:cx="243.02499" inkscape:cy="71.887497" inkscape:window-x="0" inkscape:window-y="0" inkscape:current-layer="svg2"/><defs id="defs4"><linearGradient id="linearGradient2795"><stop style="stop-color:#b8b8b8;stop-opacity:.49803922" offset="0" id="stop2797"/><stop style="stop-color:#7f7f7f;stop-opacity:0" offset="1" id="stop2799"/></linearGradient><linearGradient id="linearGradient2787"><stop style="stop-color:#7f7f7f;stop-opacity:.5" offset="0" id="stop2789"/><stop style="stop-color:#7f7f7f;stop-opacity:0" offset="1" id="stop2791"/></linearGradient><linearGradient id="linearGradient3676"><stop style="stop-color:#b2b2b2;stop-opacity:.5" offset="0" id="stop3678"/><stop style="stop-color:#b3b3b3;stop-opacity:0" offset="1" id="stop3680"/></linearGradient><linearGradient id="linearGradient3236"><stop style="stop-color:#f4f4f4;stop-opacity:1" offset="0" id="stop3244"/><stop style="stop-color:#ffffff;stop-opacity:1" offset="1" id="stop3240"/></linearGradient><linearGradient id="linearGradient4671"><stop style="stop-color:#ffd43b;stop-opacity:1" offset="0" id="stop4673"/><stop style="stop-color:#ffe873;stop-opacity:1" offset="1" id="stop4675"/></linearGradient><linearGradient id="linearGradient4689"><stop style="stop-color:#5a9fd4;stop-opacity:1" offset="0" id="stop4691"/><stop style="stop-color:#306998;stop-opacity:1" offset="1" id="stop4693"/></linearGradient><linearGradient x1="224.23996" y1="144.75717" x2="-65.308502" y2="144.75717" id="linearGradient2987" xlink:href="#linearGradient4671" gradientUnits="userSpaceOnUse" gradientTransform="translate(100.2702,99.61116)"/><linearGradient x1="172.94208" y1="77.475983" x2="26.670298" y2="76.313133" id="linearGradient2990" xlink:href="#linearGradient4689" gradientUnits="userSpaceOnUse" gradientTransform="translate(100.2702,99.61116)"/><linearGradient x1="172.94208" y1="77.475983" x2="26.670298" y2="76.313133" id="linearGradient2587" xlink:href="#linearGradient4689" gradientUnits="userSpaceOnUse" gradientTransform="translate(100.2702,99.61116)"/><linearGradient x1="224.23996" y1="144.75717" x2="-65.308502" y2="144.75717" id="linearGradient2589" xlink:href="#linearGradient4671" gradientUnits="userSpaceOnUse" gradientTransform="translate(100.2702,99.61116)"/><linearGradient x1="172.94208" y1="77.475983" x2="26.670298" y2="76.313133" id="linearGradient2248" xlink:href="#linearGradient4689" gradientUnits="userSpaceOnUse" gradientTransform="translate(100.2702,99.61116)"/><linearGradient x1="224.23996" y1="144.75717" x2="-65.308502" y2="144.75717" id="linearGradient2250" xlink:href="#linearGradient4671" gradientUnits="userSpaceOnUse" gradientTransform="translate(100.2702,99.61116)"/><linearGradient x1="224.23996" y1="144.75717" x2="-65.308502" y2="144.75717" id="linearGradient2255" xlink:href="#linearGradient4671" gradientUnits="userSpaceOnUse" gradientTransform="matrix(0.562541,0,0,0.567972,-11.5974,-7.60954)"/><linearGradient x1="172.94208" y1="76.176224" x2="26.670298" y2="76.313133" id="linearGradient2258" xlink:href="#linearGradient4689" gradientUnits="userSpaceOnUse" gradientTransform="matrix(0.562541,0,0,0.567972,-11.5974,-7.60954)"/><radialGradient cx="61.518883" cy="132.28575" r="29.036913" fx="61.518883" fy="132.28575" id="radialGradient2801" xlink:href="#linearGradient2795" gradientUnits="userSpaceOnUse" gradientTransform="matrix(1,0,0,0.177966,0,108.7434)"/><linearGradient x1="150.96111" y1="192.35176" x2="112.03144" y2="137.27299" id="linearGradient1475" xlink:href="#linearGradient4671" gradientUnits="userSpaceOnUse" gradientTransform="matrix(0.562541,0,0,0.567972,-9.399749,-5.305317)"/><linearGradient x1="26.648937" y1="20.603781" x2="135.66525" y2="114.39767" id="linearGradient1478" xlink:href="#linearGradient4689" gradientUnits="userSpaceOnUse" gradientTransform="matrix(0.562541,0,0,0.567972,-9.399749,-5.305317)"/><radialGradient cx="61.518883" cy="132.28575" r="29.036913" fx="61.518883" fy="132.28575" id="radialGradient1480" xlink:href="#linearGradient2795" gradientUnits="userSpaceOnUse" gradientTransform="matrix(2.382716e-8,-0.296405,1.43676,4.683673e-7,-128.544,150.5202)"/></defs><g id="g2303"><path id="path46" style="fill:#646464;fill-opacity:1" d="M184.61344 61.929363c0-14.56215-4.15225999999998-22.03817-12.45678-22.44755C168.85239 39.325863 165.62611 39.852203 162.48754 41.070593 159.98254 41.967323 158.2963 42.854313 157.40931 43.751043v34.75812C162.72147 81.842673 167.43907 83.392453 171.55234 83.148783 180.25649 82.573703 184.61344 75.507063 184.61344 61.929363zM194.85763 62.533683C194.85763 69.931723 193.12265 76.072393 189.63319 80.955683 185.7441 86.482283 180.35396 89.328433 173.46277 89.484393 168.26757 89.650093 162.91642 88.022323 157.40931 84.610843V116.20116l-8.90884-3.17755V42.903043C149.96253 41.109583 151.84372 39.569543 154.12454 38.263433c5.30242000000001-3.08983 11.74524-4.67861 19.32848-4.75658L173.57973 33.633563C180.50991 33.545833 185.85132 36.391993 189.60395 42.162263c3.4992 5.29266999999999 5.25368 12.07665 5.25368 20.37142z"/><path id="path48" style="fill:#646464;fill-opacity:1" d="M249.30487 83.265743C249.30487 93.188283 248.31067 100.05998 246.32227 103.88084 244.32411 107.7017 240.52275 110.75254 234.90842 113.02361 230.35653 114.81707 225.43425 115.79178 220.15133 115.95748L218.67952 110.34316C224.05016 109.61213 227.83204 108.88109 230.02513 108.15006c4.31796-1.46205999999999 7.28108-3.70389 8.90884-6.706C240.24008 98.997543 240.88339 94.328693 240.88339 87.418003v-2.3198C234.79146 87.866373 228.40711 89.240713 221.73036 89.240713c-4.38619.0-8.25578999999999-1.37434-11.58929-4.14251C206.39818 82.086343 204.52674 78.265483 204.52674 73.635623V36.557693l8.90884-3.05084v37.3216c0 3.98656 1.28662 7.0569 3.85985000000002 9.21101 2.57323 2.1541 5.90673999999999 3.18729 9.99077 3.10932C231.37023 83.061053 235.74667 81.482023 240.39603 78.392203V34.851953h8.90884v48.41379z"/><path id="path50" style="fill:#646464;fill-opacity:1" d="M284.08249 88.997033C283.02006 89.084753 282.04535 89.123743 281.14862 89.123743 276.10937 89.123743 272.18129 87.924853 269.37413 85.517323 266.57671 83.109793 265.17314 79.786033 265.17314 75.546053V40.456523H259.07146v-5.60457H265.17314V19.968143l8.89909-3.16781v18.05162h10.01026v5.60457H274.07223v34.84585C274.07223 78.645623 274.96896 81.014163 276.76243 82.398253 278.30247 83.538663 280.74899 84.191723 284.08249 84.357423V88.997033z"/><path id="path52" style="fill:#646464;fill-opacity:1" d="M338.02288 88.266003h-8.90884V53.878273C329.11404 50.379063 328.29528 47.367213 326.66753 44.852463 324.78634 42.006313 322.17411 40.583233 318.82112 40.583233 314.73708 40.583233 309.6296 42.737343 303.4987 47.045563v41.22044H294.58985V6.0687929L303.4987 3.2616329V40.700203C309.191 36.557693 315.40963 34.481563 322.16436 34.481563c4.7176.0 8.53845999999999 1.58877 11.46258 4.75658 2.93387999999999 3.1678 4.39594 7.11537 4.39594 11.83296v37.1949z"/><path id="path54" style="fill:#646464;fill-opacity:1" d="M385.37424 60.525783c0-5.59483-1.06241999999997-10.21495-3.17755-13.87011C379.68195 42.201253 375.77337 39.852203 370.49044 39.608523 360.72386 40.173863 355.85032 47.172273 355.85032 60.584263c0 6.15042 1.01369 11.28713 3.06056999999998 15.41015C361.52312 81.248093 365.44145 83.840823 370.66589 83.753103 380.47146 83.675123 385.37424 75.935933 385.37424 60.525783zM395.13109 60.584263C395.13109 68.547643 393.09395 75.175663 389.02941 80.468333 384.5555 86.394563 378.37584 89.367423 370.49044 89.367423c-7.81716.0-13.90909-2.97286-18.30503-8.89909C348.19885 75.175663 346.21044 68.547643 346.21044 60.584263c0-7.48576 2.15411-13.78238 6.46231999999998-18.90935C357.22466 36.236033 363.20937 33.506853 370.6074 33.506853c7.39805000000001.0 13.42174 2.72918 18.06137 8.16806C392.97697 46.801883 395.13109 53.098503 395.13109 60.584263z"/><path id="path56" style="fill:#646464;fill-opacity:1" d="M446.20583 88.266003h-8.90884V51.928853C437.29699 47.942293 436.0981 44.832973 433.70032 42.591133c-2.39778999999999-2.23208-5.59483-3.31401-9.58139-3.22628C419.8887 39.442833 415.86314 40.826913 412.04229 43.507363v44.75864h-8.90884V42.405943c5.12697000000003-3.73313 9.84456-6.16991 14.15276-7.31032C421.35076 34.033193 424.93769 33.506853 428.02752 33.506853 430.14264 33.506853 432.13104 33.711543 434.00248 34.120913 437.50169 34.929923 440.34783 36.430973 442.54093 38.633823 444.98744 41.070593 446.20583 43.994723 446.20583 47.415943v40.85006z"/><path id="path1948" style="fill:url(#linearGradient1478);fill-opacity:1" d="M60.510156 6.3979729C55.926503 6.4192712 51.549217 6.8101906 47.697656 7.4917229 36.35144 9.4962267 34.291407 13.691825 34.291406 21.429223v10.21875h26.8125v3.40625h-26.8125-10.0625c-7.792459.0-14.6157592 4.683717-16.7500002 13.59375-2.46182 10.212966-2.5710151 16.586023.0 27.25C9.3848341 83.835825 13.936449 89.491721 21.728906 89.491723h9.21875v-12.25c0-8.849902 7.657144-16.656248 16.75-16.65625h26.78125c7.45495100000001.0 13.406253-6.138164 13.40625-13.625V21.429223c0-7.266339-6.12997999999999-12.7247775-13.40625-13.9375001-4.605987-.7667253-9.385097-1.1150483-13.96875-1.09375zm-14.5 8.2187501c2.769547.0 5.03125 2.298646 5.03125 5.125C51.041404 22.558059 48.779703 24.835473 46.010156 24.835473 43.23068 24.835472 40.978906 22.558058 40.978906 19.741723 40.978905 16.91537 43.23068 14.616723 46.010156 14.616723z"/><path id="path1950" style="fill:url(#linearGradient1475);fill-opacity:1" d="M91.228906 35.054223v11.90625c0 9.230755-7.82589499999999 16.999999-16.75 17H47.697656c-7.335833.0-13.406249 6.278483-13.40625 13.625V103.11672c0 7.26634 6.318588 11.54032 13.40625 13.625 8.487331 2.49561 16.626237 2.94663 26.78125.0 6.75015500000001-1.95439 13.406253-5.88761 13.40625-13.625V92.897973H61.103906v-3.40625h26.78125H101.29141c7.79246000000001.0 10.69625-5.435408 13.40624-13.59375C117.49698 67.499087 117.37787 59.422197 114.69765 48.647973 112.77187 40.890532 109.09378 35.054223 101.29141 35.054223H91.228906zm-15.0625 64.65625C78.945884 99.710476 81.197656 101.98789 81.197656 104.80422 81.197654 107.63057 78.945881 109.92922 76.166406 109.92922c-2.76955.0-5.03125-2.29865-5.03125-5.125C71.135158 101.98789 73.396853 99.710473 76.166406 99.710473z"/><path id="text3004" style="font-size:15.16445827px;font-style:normal;font-weight:400;line-height:125%;fill:#646464;fill-opacity:1;stroke:none;stroke-width:1px;stroke-linecap:butt;stroke-linejoin:miter;stroke-opacity:1;font-family:Bitstream Vera Sans" d="M463.5544 26.909383H465.11635v-9.79624h3.70013v-1.16766H459.85427v1.16766h3.70013v9.79624m6.64702.0H471.53589v-8.94703l2.89641 8.945906H475.91799L478.93615 17.992683v8.9167H480.39194v-10.9639H478.46605L475.16774 25.33834 472.35477 15.945483H470.20142v10.9639"/><path id="path1894" style="opacity:.44382019;fill:url(#radialGradient1480);fill-opacity:1;fill-rule:nonzero;stroke:none;stroke-width:20;stroke-miterlimit:4;stroke-dasharray:none;stroke-opacity:1" transform="matrix(0.73406,0,0,0.809524,16.24958,27.00935)" d="M110.46717 132.28575a48.948284 8.6066771.0 11-97.896571.0 48.948284 8.6066771.0 1197.896571.0z"/></g></svg>