<?xml version="1.0" standalone="yes"?><svg xmlns="http://www.w3.org/2000/svg" xmlns:xlink="http://www.w3.org/1999/xlink" cursor="default" height="155px" width="81px" version="1.0" visibility="visible"><path d="M18.709,58.127998 c-.787,-.652 -3.278,-4.658 -5.826,-5.134 c-6.403,-1.196 -9.405,-1.528 -8.71,-5.811 c.557,-3.434 5.226,-6.812 7.427,-6.812 c.612,0 3.773,-1.985 4.706,-2.673 c2.987,-8.23 -10.297,-24.488 -6.267,-32.257 c2.831,-2.56 6.964,-3.743 8.736,-1.32 L25.190002,24.32 c3.852,-1.863 11.056,1.74 17.321,.46 c5.333,-1.088 11.948,2.203 13.647,-2.386 c.735,-13.021 14.903,-1.313 11.155,-3.047 c-1.883,5.57 -3.226,11.332 -6.384,18.157 c-.325,.702 5.304,3.64 7.82,4.678 c9.716,4.01 7.766,11.084 1.842,10.044 c-2.053,-.36 -11.637,7.485 -12.598,7.748  z " visibility="visible" fill="#DEBCA7"></path><path d="M63.992996,150.903 c-3.75,-.975 -4.398,-4.636 -4.398,-8.354 c0,-2.58 -2.061,-2.645 -9.873,-3.18 c-9.32,-.64 -14.099,-3.017 -16.073,-7.999 c-.706,-1.782 -3.888,-6.097 -6.49,-8.428 c-5.577,-4.996 -3.696,-3.115 -2.26,-10.452 c.773,-3.943 3.012,-8.701 1.669,-10.974 c10.762,-2.225 52.685,4.303 26.28,1.307 c-.895,1.964 1.038,5.224 2.056,9.467 c1.624,6.77 .859,5.22 -3.674,10.381 c-1.87,2.13 -3.955,7.291 -3.127,7.313 c10.413,.275 25.455,3.825 27.535,6.256 c5.267,6.154 1.117,14.27 -2.29,15.283 c-2.025,.602 -7.592,-.161 -9.355,-.62 M44.459999,113.261002 c.398,-2.066 -5.808,-4.881 -7.332,-3.358 c-1.523,1.524 -.13,8.678 1.936,8.28 c.958,-.184 5.212,-3.964 5.396,-4.922  z " visibility="visible" fill="#357473"></path><path d="M44.321999,113.425003 c0,2.095 -1.804,3.794 -4.03,3.794 s-4.03,-1.699 -4.03,-3.794 c0,-2.095 1.804,-3.794 4.03,-3.794 s4.03,1.699 4.03,3.794 z" visibility="visible" fill="#DEBCA7"></path><path stroke="#000" fill-rule="evenodd" stroke-width="1px" d="M23.458,99.673004 l-.475,-8.061 l7.113,-4.268 l15.175,.948 l8.061,2.846 l1.423,7.587 l-3.32,2.37 H38.633003 l-15.174,-1.422 z" fill="#F40022" visibility="visible"></path><path d="M25.829002,77.386002 l-7.113,-21.34 c3.008,-3.937 6.176,-7.393 10.432,-7.587 l-1.423,-6.638 c6.852,-3.822 10.353,.021 14.08,-.614 c2.921,-.498 5.648,-2.348 11.527,1.088 l-1.896,7.587 c6.888,1.479 7.877,4.432 9.958,7.113 l-8.062,20.865 l-27.503,-.474 z" visibility="visible" fill-rule="evenodd" fill="#F40022"></path><path stroke="#000" fill-rule="evenodd" stroke-width="1px" d="M67.084,16.214001 l-7.113,-1.423 c1.055,-2.897 2.214,-5.689 2.845,-9.01 c.182,-.397 2.131,-1.223 3.936,-.859 c1.268,.256 1.538,3.18 2.842,2.675 l-2.51,8.617 M13.973999,18.584999 l7.587,-1.897 l4.268,22.762 l-7.588,-1.897 l-4.267,-18.968 z" fill="#E80020" visibility="visible"></path><path stroke="#000" fill-rule="evenodd" stroke-width="1px" d="M20.612,82.127998 l2.846,9.01 l14.7,-3.794 l17.545,4.742 l2.846,-9.484 l-17.072,-4.742 l-20.865,4.268 z" fill="#fff" visibility="visible"></path><path d="M68.625,153.173996 c-5.212,.048 -9.297,-4.01 -10.744,-8.198 l-.708,-3.476 l-7.06,-.634 c-3.883,-.35 -8.14,-.964 -9.461,-1.365 c-3.505,-1.066 -6.708,-4.342 -7.421,-7.589 c-.391,-1.779 -1.94,-3.651 -4.155,-5.02 c-6.524,-4.032 -9.11,-12.07 -6.278,-19.517 c.863,-2.27 .687,-3.242 -1,-5.525 c-2.324,-3.142 -2.562,-5.628 -.892,-9.293 c.945,-2.074 .811,-3.303 -.73,-6.72 c-1.232,-2.732 -1.508,-4.31 -.798,-4.546 c.599,-.2 1.902,-.958 2.897,-1.686 c1.668,-1.219 .98,-1.716 .49,-7.713 c-1.068,-13.12 -10.871,-18.614 -20.076,-19.67 c.898,-7.959 4.286,-11.014 7.275,-12.459 c2.208,-.883 5.103,-2.424 5.408,-3.22 c.305,-.795 -.581,-5.405 -1.969,-10.244 c-6.149,-21.439 -3.757,-24.469 4.42,-23.935 l2.39,1.136 l2.592,9.5 l2.827,11.634 l1.871,-2.235 c2.572,-.12 7.92,-2.673 13.348,2.146 c6.287,-4.98 10.173,-1.738 10.588,-1.998 c.216,-.136 2.56,2.47 3.745,1.666 c1.184,-.803 1.21,-5.015 1.53,-6.46 c2.136,-9.64 3.933,-13.51 6.582,-14.175 c6.65,-1.67 9.715,2.269 7.677,9.863 c-2.038,7.594 -8.587,22.203 -7.858,23.664 c.728,1.46 2.547,2.654 4.89,3.208 c4.313,1.02 8.913,6.565 8.913,10.096 c-6.897,3.427 -14.706,5.866 -17.645,15.804 c-3.197,10.049 -3.56,10.59 -1.033,13.593 c2.084,2.477 2.18,3 .949,5.223 c-.753,1.36 -1.384,4.812 -1.404,7.674 c-.019,2.862 -.565,6.367 -1.214,7.79 c-.915,2.01 -.892,3.704 .104,7.59 c1.714,6.688 .693,11.227 -3.591,15.97 c-5.216,5.773 -4.22,6.947 5.891,6.947 c9.623,0 14.169,1.082 17.435,4.15 c5.001,8.553 .818,18.56 -7.785,18.024 m.167,-2.348 c5.304,.3 6.473,-3.128 6.766,-8.4 c-.408,-5.006 -2.546,-8.13 -17.48,-9.738 c-6.694,-.72 -12.854,-1.88 -13.69,-2.573 c-1.79,-1.485 -1.086,-4.115 1.1,-4.115 c.84,0 3.041,-1.607 4.894,-3.571 c2.6,-2.757 3.368,-4.433 3.368,-7.351 c0,-6.444 -1.673,-9.56 -6.403,-11.923 c-5.227,-2.61 -9.92,-2.74 -14.597,-.403 c-8.98,4.485 -8.975,19.153 .006,23.38 c2.719,1.279 3.605,2.378 3.994,4.954 c.839,5.552 4.948,7.168 18.843,7.41 c6.411,.111 12.204,.27 12.872,.353 c1.717,.213 3.392,3.707 2.674,5.579 c-.851,2.219 -2.894,1.95 -4.59,-.603 c-.947,-1.427 -2.021,-1.954 -3.121,-1.532 c-4.437,3.52 1.933,8.077 5.364,8.533 m-8.018,-111.898 c.866,-2.728 1.758,-6.785 4.114,-13.08 c1.178,-3.149 2.791,-5.827 2.35,-7.115 c-1.625,-1.517 -4.762,-1.768 -6.877,-1.787 c-.55,.538 -1.15,2.365 -1.717,4.051 c-1.947,7.841 -5.36,20.716 -4.44,19.522 c1.678,-2.177 7.793,-.43 6.57,-1.591 M43,98.563004 c9.874,.057 10.75,-.09 10.75,-1.816 c0,-3.896 -1.92,-5.589 -7.702,-6.789 c-11.157,-2.316 -21.298,.803 -21.298,6.55 c0,3.088 1.07,3.76 4.493,2.818 c1.654,-.454 7.845,-.798 13.757,-.763 m12.382,-9.757 l1.285,-6.426 l-6.23,-1.315 l-.41,6.185 l5.355,1.556 m-25.829,-1.922 c.196,-1.373 .144,-5.39 -.772,-6.301 c-.916,-.91 -4.875,1.958 -6.124,2.284 l1.337,5.277 c2.291,.207 5.615,-.122 5.56,-1.26 m9.374,-.53 l-.076,-6.482 c-1.148,-.164 -6.533,-.761 -7.253,.106 c1.236,.589 -.471,5.741 .897,6.337 l6.432,.038 m8.383,.408 l.148,-6.544 l-5.829,-.55 l-.463,5.975 l6.144,1.119 m4.043,-10.596 c.607,-.091 2.317,-3.896 3.8,-8.456 c2.963,-9.11 5.599,-12.054 14.195,-15.856 c3.922,-1.735 4.48,-2.355 4.211,-4.677 c-.397,-3.441 -5.84,-6.23 -10.653,-5.458 C59.049004,42.336998 52.75,48.084999 52.75,50.986 c0,2.9 -2.147,7.014 -3.66,7.014 c-2.06,0 -1.648,-6.475 .704,-11.087 c1.125,-2.204 2.427,-7.024 2.893,-10.71 C53.755997,27.759995 52.419998,25 47.262001,25 c-5.035,0 -5.782,2.164 -5.364,15.541 c.193,6.21 -.01,11.652 -.452,12.095 c-1.75,1.753 -2.666,-2.625 -2.68,-12.804 c-.01,-5.868 -.302,-11.415 -.652,-12.327 c-1.062,-2.767 -5.072,-3.708 -8.42,-1.976 c-2.635,1.363 -2.942,2.018 -2.92,6.247 c.013,2.723 1.082,7.265 2.524,10.724 C32.669998,50.592003 33.599998,57 31.404999,57 c-.955,0 -1.858,-1.126 -2.205,-2.75 c-2.215,-10.354 -6.787,-14.774 -14.417,-13.937 c-8.268,.907 -12.316,9.344 -5.18,10.795 c1.845,.375 5.12,1.478 7.276,2.45 c4.428,1.997 6.817,6.29 8.972,16.121 c.701,3.202 1.598,6.046 1.992,6.321 c.637,.444 20.719,.586 23.51,.166 M25.184998,36.959 c.417,-1.087 -.985,-5.453 -1.839,-9.498 c-.854,-4.045 -1.999,-9.11 -2.745,-9.584 c-1.988,1.533 -4.279,2.013 -5.56,2.058 c.436,6.222 4.03,12.777 4.984,17.519 c.717,.41 4.699,.707 5.16,-.495 m-4.67,-21.063 c.218,-2.185 -.413,-2.677 -.627,-5.77 c-.578,-1.081 -1.14,-4.742 -2.456,-4.885 c-1.317,-.143 -4.228,-.121 -5.147,.797 c-.737,.737 .717,3.81 .685,5.515 c.767,2.267 .458,4.11 1.636,6.004 c1.1,.229 4.447,-1.1 5.91,-1.661 m48.08,-8.631 c-4.303,-2.428 -4.503,.786 -4.396,-.375 c-1.635,.71 -2.529,4.58 -2.424,6.775 c.318,.827 3.022,1 4.37,1 c1.919,0 1.927,-5.02 2.45,-7.4 m-33.777,110.83 C30.831001,112.496994 33.050003,108 39.797997,108 c3.06,0 4.26,.54 5.54,2.493 c2.192,3.346 1.13,7.084 -2.553,8.989 c-4.177,2.16 -5.62,1.908 -7.967,-1.386 m8.002,-2.679 c1.776,-2.14 -.01,-4.916 -3.165,-4.916 c-2.449,0 -3.586,2.283 -2.521,5.058 c.736,1.92 4.044,1.836 5.686,-.142 z" visibility="visible" fill="#282219"></path></svg>
